<svg width="200" height="200" viewBox="0 0 200 200" fill="none" xmlns="http://www.w3.org/2000/svg">
<rect width="200" height="200" rx="21" fill="#238E3B"/>
<path d="M113.658 80.375C113.339 77.3977 111.999 75.0795 109.635 73.4205C107.294 71.7614 104.249 70.9318 100.499 70.9318C97.8622 70.9318 95.6009 71.3295 93.7145 72.125C91.8281 72.9205 90.3849 74 89.3849 75.3636C88.3849 76.7273 87.8736 78.2841 87.8509 80.0341C87.8509 81.4886 88.1804 82.75 88.8395 83.8182C89.5213 84.8864 90.4418 85.7955 91.6009 86.5455C92.7599 87.2727 94.044 87.8864 95.4531 88.3864C96.8622 88.8864 98.2827 89.3068 99.7145 89.6477L106.26 91.2841C108.896 91.8977 111.43 92.7273 113.862 93.7727C116.317 94.8182 118.51 96.1364 120.442 97.7273C122.396 99.3182 123.942 101.239 125.078 103.489C126.214 105.739 126.783 108.375 126.783 111.398C126.783 115.489 125.737 119.091 123.646 122.205C121.555 125.295 118.533 127.716 114.578 129.466C110.646 131.193 105.885 132.057 100.294 132.057C94.8622 132.057 90.1463 131.216 86.1463 129.534C82.169 127.852 79.0554 125.398 76.8054 122.17C74.5781 118.943 73.3736 115.011 73.1918 110.375H85.6349C85.8168 112.807 86.5668 114.83 87.8849 116.443C89.2031 118.057 90.919 119.261 93.0327 120.057C95.169 120.852 97.5554 121.25 100.192 121.25C102.942 121.25 105.351 120.841 107.419 120.023C109.51 119.182 111.146 118.023 112.328 116.545C113.51 115.045 114.112 113.295 114.135 111.295C114.112 109.477 113.578 107.977 112.533 106.795C111.487 105.591 110.021 104.591 108.135 103.795C106.271 102.977 104.089 102.25 101.589 101.614L93.6463 99.5682C87.8963 98.0909 83.3509 95.8523 80.0099 92.8523C76.6918 89.8295 75.0327 85.8182 75.0327 80.8182C75.0327 76.7045 76.1463 73.1023 78.3736 70.0114C80.6236 66.9205 83.6804 64.5227 87.544 62.8182C91.4077 61.0909 95.7827 60.2273 100.669 60.2273C105.624 60.2273 109.964 61.0909 113.692 62.8182C117.442 64.5227 120.385 66.8977 122.521 69.9432C124.658 72.9659 125.76 76.4432 125.828 80.375H113.658Z" fill="white"/>
</svg>
